<svg width="48" height="48" viewBox="0 0 48 48" fill="none" xmlns="http://www.w3.org/2000/svg">
<path fill-rule="evenodd" clip-rule="evenodd" d="M24 48C37.2548 48 48 37.2548 48 24C48 10.7452 37.2548 0 24 0C10.7452 0 0 10.7452 0 24C0 37.2548 10.7452 48 24 48Z" fill="#FB344F" fill-opacity="0.24"/>
<mask id="mask0" mask-type="alpha" maskUnits="userSpaceOnUse" x="0" y="0" width="48" height="48">
<path fill-rule="evenodd" clip-rule="evenodd" d="M24 48C37.2548 48 48 37.2548 48 24C48 10.7452 37.2548 0 24 0C10.7452 0 0 10.7452 0 24C0 37.2548 10.7452 48 24 48Z" fill="white"/>
</mask>
<g mask="url(#mask0)">
<path fill-rule="evenodd" clip-rule="evenodd" d="M41.4618 42.4314C40.0469 40.3846 37.9609 38.8968 35.5649 38.2256L29.9999 36.6667V32.6668C32.3525 30.8996 33.8974 28.1187 33.9923 24.973C34.3211 25.1179 34.6841 25.2 35.0667 25.2C36.5394 25.2 37.7334 24.0062 37.7334 22.5334C37.7334 21.0606 36.5394 19.8667 35.0667 19.8667C34.6871 19.8667 34.3269 19.9471 34.0001 20.09V19.3334C34.0001 13.8104 29.5229 9.33337 24.0001 9.33337H23.9999C18.4771 9.33337 14.0001 13.8104 14.0001 19.3334V20.09C13.6731 19.9471 13.3129 19.8667 12.9334 19.8667C11.4606 19.8667 10.2667 21.0606 10.2667 22.5334C10.2667 24.0062 11.4606 25.2 12.9334 25.2C13.3159 25.2 13.6789 25.118 14.0078 24.973C14.1026 28.1187 15.6475 30.8996 17.9999 32.6668V36.6667L12.4351 38.2256C10.0391 38.8968 7.95315 40.3846 6.53821 42.4314L2.66675 48.032V52H45.3334V48.032L41.4618 42.4314Z" fill="#FFCF83"/>
<path fill-rule="evenodd" clip-rule="evenodd" d="M24 34.6666C22.7669 34.6666 21.5866 34.4421 20.496 34.0339C22.0472 35.0249 23.8893 35.6 25.8666 35.6C27.3413 35.6 28.7398 35.2782 30 34.7053V32.6667C28.3286 33.9222 26.2513 34.6666 24 34.6666Z" fill="#F7A74F"/>
<path d="M14.3479 22.9225C14.3819 22.7986 14.4001 22.6681 14.4001 22.5334C14.4001 21.7234 13.7435 21.0668 12.9335 21.0668C12.7309 21.0668 12.538 21.1078 12.3625 21.182" stroke="#00004D" stroke-linecap="round" stroke-linejoin="round"/>
<path d="M33.6522 22.9225C33.6182 22.7986 33.6001 22.6681 33.6001 22.5334C33.6001 21.7234 34.2568 21.0668 35.0668 21.0668C35.2692 21.0668 35.4621 21.1078 35.6377 21.182" stroke="#00004D" stroke-linecap="round" stroke-linejoin="round"/>
<path fill-rule="evenodd" clip-rule="evenodd" d="M26.6666 28.5345C26.6666 30.0073 25.4727 31.2012 23.9999 31.2012C22.5271 31.2012 21.3333 30.0073 21.3333 28.5345H26.6666Z" fill="white"/>
<path fill-rule="evenodd" clip-rule="evenodd" d="M29.4667 22.9333C29.4667 23.5224 28.9891 24 28.4 24C27.811 24 27.3334 23.5224 27.3334 22.9333C27.3334 22.3442 27.811 21.8666 28.4 21.8666C28.9891 21.8666 29.4667 22.3442 29.4667 22.9333" fill="#00004D"/>
<path fill-rule="evenodd" clip-rule="evenodd" d="M20.6667 22.9333C20.6667 23.5224 20.1891 24 19.6 24C19.0109 24 18.5333 23.5224 18.5333 22.9333C18.5333 22.3442 19.0109 21.8666 19.6 21.8666C20.1891 21.8666 20.6667 22.3442 20.6667 22.9333" fill="#00004D"/>
<path d="M23.9999 21.8666L25.3332 26.4L23.4666 26.6666" stroke="#00004D" stroke-linecap="round" stroke-linejoin="round"/>
<path fill-rule="evenodd" clip-rule="evenodd" d="M34.6667 19.8999V19.3334C34.6667 17.2872 34.0895 15.3763 33.0907 13.7527C32.165 12.248 30.8756 10.9926 29.346 10.1046C27.7739 9.19175 25.9487 8.66669 24 8.66669C22.0512 8.66669 20.2262 9.19175 18.654 10.1046C17.1244 10.9926 15.8351 12.248 14.9094 13.7527C13.9106 15.3763 13.3334 17.2872 13.3334 19.3334V19.8999C13.8896 19.9839 14.3892 20.2379 14.7771 20.6096C16.0056 19.3766 16.995 17.9054 17.668 16.2698C19.5518 17.2883 21.7083 17.8667 24 17.8667C26.2918 17.8667 28.4483 17.2883 30.332 16.2698C31.005 17.9054 31.9946 19.3766 33.223 20.6096C33.6108 20.2379 34.1104 19.9839 34.6667 19.8999" fill="#00004D"/>
<path fill-rule="evenodd" clip-rule="evenodd" d="M45.3333 48.032L41.4617 42.4314C40.0469 40.3847 37.9609 38.8968 35.5648 38.2256L30 36.6667C30 39.9804 27.3137 42.6667 24 42.6667V42.6667C20.6862 42.6667 18 39.9804 18 36.6667L12.435 38.2256C10.039 38.8968 7.95303 40.3847 6.53809 42.4314L2.66663 48.032V52H45.3333V48.032Z" fill="#FB344F"/>
</g>
</svg>
